<svg width="1199" height="564" viewBox="0 0 1199 564" fill="none" xmlns="http://www.w3.org/2000/svg">
<path fill-rule="evenodd" clip-rule="evenodd" d="M383.618 358.649C334.426 350.2 283.749 357.873 233.842 357.175C211.569 356.864 188.513 353.471 165.402 346.684C52.1517 313.423 -19.5189 211.231 5.32099 118.431C30.1609 25.6318 142.105 -22.6341 255.355 10.6265C270.466 15.0646 284.837 20.73 298.338 27.4366C361.162 58.6463 419.387 103.729 487.809 119.203L955.045 224.877C992.657 233.383 1032.34 231.055 1070.02 239.248C1132.04 252.732 1183.26 303.581 1195.47 371.559C1211.5 460.79 1154.24 545.743 1067.59 561.309C1051.25 564.243 1035.03 564.502 1019.36 562.391C905.242 547.016 813.47 432.475 699.978 412.983L383.618 358.649Z" fill="#F7F8F3"/>
</svg>
