<svg width="65" height="42" viewBox="0 0 65 42" fill="none" xmlns="http://www.w3.org/2000/svg">
<g clip-path="url(#clip0_737_483)">
<path fill-rule="evenodd" clip-rule="evenodd" d="M19.3739 24.3121C18.5688 25.1291 18.5688 26.4555 19.3742 27.2725C20.1787 28.0897 21.4854 28.0894 22.2898 27.2721L24.8229 24.6997C26.9744 26.1826 29.5901 27.0525 32.4107 27.0525C39.7407 27.0525 45.6898 21.1616 45.6898 13.9128C45.6898 11.0017 44.7339 8.30657 43.1159 6.12243L45.6262 3.5731C46.4312 2.75616 46.4312 1.42972 45.6259 0.612787C44.8215 -0.204493 43.5146 -0.204146 42.7102 0.613131L40.152 3.21118C37.9729 1.65552 35.2999 0.738064 32.4107 0.738064C25.0651 0.738064 19.1206 6.65246 19.1206 13.9128C19.1206 16.8876 20.1225 19.6333 21.811 21.8371L19.3739 24.3121ZM27.839 21.6367C29.1805 22.4143 30.7427 22.8605 32.4107 22.8605C37.4035 22.8605 41.4558 18.8452 41.4558 13.9128C41.4558 12.1792 40.9591 10.5592 40.0995 9.1855L27.839 21.6367ZM37.1474 6.26254L24.8162 18.7853C23.8917 17.3821 23.3546 15.7081 23.3546 13.9128C23.3546 8.9585 27.4126 4.93015 32.4107 4.93015C34.1459 4.93015 35.7688 5.41779 37.1474 6.26254Z" fill="#3C3F34"/>
<path d="M1.73798 38.7297V32.7051H3.82354V38.7297C3.82354 39.3335 4.17113 39.9346 4.86632 39.9346C5.56151 39.9346 5.9091 39.3335 5.9091 38.7297V32.7051H7.99466C7.99459 34.0122 7.99463 35.6203 7.99463 37.0197L7.99466 38.7297C7.99466 40.5405 6.59316 42.0002 4.86632 42.0002C3.13914 42.0002 1.73798 40.5405 1.73798 38.7297Z" fill="#3C3F34"/>
<path d="M14.9465 41.9926V34.7707H13.2086V32.7051H18.7701V34.7707H17.0321V42.0002L14.9465 41.9926Z" fill="#3C3F34"/>
<path fill-rule="evenodd" clip-rule="evenodd" d="M28.6759 32.7051C26.0861 32.7051 23.9839 34.7872 23.9839 37.3523C23.9839 39.9181 26.0861 42.0002 28.6759 42.0002C31.2668 42.0002 33.369 39.9181 33.369 37.3523C33.369 34.7872 31.2668 32.7051 28.6759 32.7051ZM28.6759 34.8922C30.0477 34.8922 31.1603 35.9948 31.1603 37.3523C31.1603 38.7107 30.0477 39.8127 28.6759 39.8127C27.3049 39.8127 26.1922 38.7107 26.1922 37.3523C26.1922 35.9948 27.3049 34.8922 28.6759 34.8922Z" fill="#3C3F34"/>
<path d="M49.3583 32.7051V42.0002H51.4438V32.7051H49.3583Z" fill="#3C3F34"/>
<path fill-rule="evenodd" clip-rule="evenodd" d="M60.8299 40.2788L60.8289 42.0002H62.9145V35.9756C62.9145 34.1641 61.5126 32.7051 59.7861 32.7051C58.0596 32.7051 56.6578 34.1641 56.6578 35.9756V42.0002H58.7433L58.7437 40.2788H60.8299ZM60.8289 35.9866L60.8299 38.2133H58.7433V35.9756C58.7433 35.3714 59.2109 34.8918 59.7861 34.8918C60.3614 34.8918 60.8289 35.3824 60.8289 35.9866Z" fill="#3C3F34"/>
<path d="M14.0003 22.2888C14.7936 23.091 14.7987 24.3995 14.0126 25.2089C13.2261 26.0182 11.9441 26.0237 11.1505 25.2213L0 13.9398L11.1509 2.66348C11.9445 1.861 13.2265 1.86685 14.013 2.67656C14.7991 3.48592 14.7936 4.79447 14.0003 5.5966L5.74909 13.9408L14.0003 22.2888Z" fill="#3C3F34"/>
<path d="M50.9875 25.2089C50.2012 24.3995 50.2064 23.091 50.9996 22.2888L59.2508 13.9408L50.9996 5.5966C50.2064 4.79447 50.2009 3.48592 50.9871 2.67656C51.7734 1.86685 53.0557 1.861 53.8492 2.66348L65 13.9398L53.8496 25.2213C53.056 26.0237 51.7737 26.0182 50.9875 25.2089Z" fill="#3C3F34"/>
<path fill-rule="evenodd" clip-rule="evenodd" d="M38.5829 42.0002V32.7051H41.6817V32.7068C43.0474 32.7447 44.1444 33.9541 44.1444 35.4392C44.1444 36.8758 43.0606 38.2133 41.7112 38.2133H40.6684V42.0002H38.5829ZM42.4064 35.4592C42.4064 36.0496 42.0783 36.471 41.5374 36.492H40.6684V34.4264H41.5374C42.0957 34.4264 42.4064 34.8557 42.4064 35.4592Z" fill="#3C3F34"/>
<path d="M63.2631 0C63.555 0 63.8397 0.0745255 64.1178 0.223577C64.3959 0.371108 64.6121 0.583277 64.7674 0.860084C64.9225 1.13537 65 1.42283 65 1.72245C65 2.01903 64.9232 2.30421 64.7695 2.57797C64.6176 2.85174 64.4035 3.06467 64.1268 3.21677C63.8522 3.36734 63.5641 3.44262 63.2631 3.44262C62.962 3.44262 62.6735 3.36734 62.3972 3.21677C62.1223 3.06467 61.9078 2.85174 61.7545 2.57797C61.6009 2.30421 61.524 2.01903 61.524 1.72245C61.524 1.42283 61.6016 1.13537 61.7566 0.860084C61.9134 0.583277 62.1306 0.371108 62.4087 0.223577C62.6864 0.0745255 62.9714 0 63.2631 0ZM63.2631 0.285174C63.019 0.285174 62.7809 0.347533 62.5491 0.472249C62.3186 0.595443 62.1382 0.772631 62.0079 1.00381C61.8772 1.23347 61.8119 1.47302 61.8119 1.72245C61.8119 1.97036 61.8758 2.20839 62.003 2.43653C62.1323 2.66315 62.3117 2.84034 62.5421 2.96809C62.7726 3.09433 63.0128 3.15745 63.2631 3.15745C63.5133 3.15745 63.7539 3.09433 63.9843 2.96809C64.2144 2.84034 64.3934 2.66315 64.521 2.43653C64.6482 2.20839 64.7122 1.97036 64.7122 1.72245C64.7122 1.47302 64.6468 1.23347 64.5161 1.00381C64.3872 0.772631 64.2068 0.595443 63.9749 0.472249C63.7431 0.347533 63.5057 0.285174 63.2631 0.285174ZM62.5936 2.64817V0.794451H63.1456C63.3652 0.794451 63.522 0.838792 63.62 0.873772C63.7184 0.907235 63.797 0.966551 63.855 1.05172C63.9134 1.1369 63.9426 1.22739 63.9426 1.32321C63.9426 1.45857 63.8936 1.57644 63.7952 1.67682C63.6986 1.77721 63.5696 1.83348 63.4084 1.84565C63.4744 1.87302 63.5272 1.90572 63.5672 1.94375C63.6426 2.01675 63.7347 2.13919 63.8435 2.31105L64.0643 2.64817H63.6631L63.5373 2.38178C63.4066 2.15211 63.3016 2.00839 63.2217 1.95059C63.1664 1.90801 63.1007 1.85372 62.9947 1.85372L62.8609 1.84565V2.64817H62.5936ZM62.8609 1.5889H63.1282C63.3034 1.5889 63.4629 1.60534 63.5258 1.55363C63.5901 1.50192 63.62 1.40838 63.62 1.32321C63.62 1.22294 63.5377 1.13892 63.4473 1.10419C63.3938 1.0829 63.2759 1.05172 63.1282 1.05172H62.8609V1.5889Z" fill="#3C3F34"/>
</g>
<defs>
<clipPath id="clip0_737_483">
<rect width="65" height="42" fill="white"/>
</clipPath>
</defs>
</svg>
