<svg width="82" height="13" viewBox="0 0 82 13" fill="none" xmlns="http://www.w3.org/2000/svg">
<path d="M5.2 10.039C4.55 10.039 3.94767 9.922 3.393 9.688C2.83833 9.454 2.353 9.129 1.937 8.713C1.521 8.28833 1.196 7.79867 0.962 7.244C0.736667 6.68933 0.624 6.09133 0.624 5.45C0.624 4.80867 0.741 4.21067 0.975 3.656C1.209 3.10133 1.534 2.616 1.95 2.2C2.366 1.77533 2.85133 1.446 3.406 1.212C3.96933 0.978 4.576 0.861 5.226 0.861C5.876 0.861 6.47833 0.978 7.033 1.212C7.59633 1.43733 8.08167 1.758 8.489 2.174C8.905 2.59 9.22567 3.07533 9.451 3.63C9.685 4.176 9.802 4.774 9.802 5.424C9.802 6.074 9.685 6.68067 9.451 7.244C9.217 7.79867 8.88767 8.28833 8.463 8.713C8.047 9.129 7.56167 9.454 7.007 9.688C6.45233 9.922 5.85 10.039 5.2 10.039ZM5.2 9.454C5.76333 9.454 6.28767 9.35 6.773 9.142C7.25833 8.934 7.683 8.648 8.047 8.284C8.411 7.92 8.69267 7.49533 8.892 7.01C9.09133 6.516 9.191 5.98733 9.191 5.424C9.191 4.86067 9.09133 4.33633 8.892 3.851C8.69267 3.36567 8.41533 2.94533 8.06 2.59C7.70467 2.23467 7.28433 1.95733 6.799 1.758C6.32233 1.55 5.798 1.446 5.226 1.446C4.654 1.446 4.121 1.55 3.627 1.758C3.14167 1.95733 2.72133 2.24333 2.366 2.616C2.01067 2.98 1.73333 3.40467 1.534 3.89C1.33467 4.36667 1.235 4.88667 1.235 5.45C1.235 6.01333 1.33467 6.53767 1.534 7.023C1.73333 7.50833 2.01067 7.933 2.366 8.297C2.72133 8.661 3.14167 8.947 3.627 9.155C4.11233 9.35433 4.63667 9.454 5.2 9.454ZM5.343 8.128C4.81433 8.128 4.342 8.01533 3.926 7.79C3.51 7.56467 3.185 7.25267 2.951 6.854C2.717 6.44667 2.6 5.97867 2.6 5.45C2.6 4.92133 2.717 4.45767 2.951 4.059C3.185 3.65167 3.51 3.33533 3.926 3.11C4.342 2.88467 4.81433 2.772 5.343 2.772C5.80233 2.772 6.214 2.86733 6.578 3.058C6.95067 3.24 7.241 3.49567 7.449 3.825L6.708 4.358C6.54333 4.11533 6.33967 3.93767 6.097 3.825C5.863 3.71233 5.60733 3.656 5.33 3.656C4.992 3.656 4.693 3.734 4.433 3.89C4.18167 4.03733 3.978 4.24533 3.822 4.514C3.666 4.774 3.588 5.086 3.588 5.45C3.588 5.814 3.666 6.13033 3.822 6.399C3.978 6.659 4.18167 6.867 4.433 7.023C4.693 7.17033 4.992 7.244 5.33 7.244C5.60733 7.244 5.863 7.18767 6.097 7.075C6.33967 6.96233 6.54333 6.78467 6.708 6.542L7.449 7.062C7.241 7.39133 6.95067 7.65133 6.578 7.842C6.214 8.03267 5.80233 8.128 5.343 8.128ZM19.3481 10.104C18.6547 10.104 18.0134 9.99133 17.4241 9.766C16.8434 9.532 16.3364 9.207 15.9031 8.791C15.4784 8.36633 15.1447 7.87233 14.9021 7.309C14.6594 6.74567 14.5381 6.126 14.5381 5.45C14.5381 4.774 14.6594 4.15433 14.9021 3.591C15.1447 3.02767 15.4827 2.538 15.9161 2.122C16.3494 1.69733 16.8564 1.37233 17.4371 1.147C18.0264 0.913 18.6677 0.796 19.3611 0.796C20.0631 0.796 20.7087 0.917333 21.2981 1.16C21.8961 1.394 22.4031 1.745 22.8191 2.213L21.9741 3.032C21.6274 2.668 21.2374 2.39933 20.8041 2.226C20.3707 2.044 19.9071 1.953 19.4131 1.953C18.9017 1.953 18.4251 2.03967 17.9831 2.213C17.5497 2.38633 17.1727 2.629 16.8521 2.941C16.5314 3.253 16.2801 3.62567 16.0981 4.059C15.9247 4.48367 15.8381 4.94733 15.8381 5.45C15.8381 5.95267 15.9247 6.42067 16.0981 6.854C16.2801 7.27867 16.5314 7.647 16.8521 7.959C17.1727 8.271 17.5497 8.51367 17.9831 8.687C18.4251 8.86033 18.9017 8.947 19.4131 8.947C19.9071 8.947 20.3707 8.86033 20.8041 8.687C21.2374 8.505 21.6274 8.22767 21.9741 7.855L22.8191 8.674C22.4031 9.142 21.8961 9.49733 21.2981 9.74C20.7087 9.98267 20.0587 10.104 19.3481 10.104ZM27.1506 10.078C26.4573 10.078 25.8419 9.92633 25.3046 9.623C24.7673 9.31967 24.3426 8.90367 24.0306 8.375C23.7186 7.83767 23.5626 7.231 23.5626 6.555C23.5626 5.87033 23.7186 5.26367 24.0306 4.735C24.3426 4.20633 24.7673 3.79467 25.3046 3.5C25.8419 3.19667 26.4573 3.045 27.1506 3.045C27.8353 3.045 28.4463 3.19667 28.9836 3.5C29.5296 3.79467 29.9543 4.20633 30.2576 4.735C30.5696 5.255 30.7256 5.86167 30.7256 6.555C30.7256 7.23967 30.5696 7.84633 30.2576 8.375C29.9543 8.90367 29.5296 9.31967 28.9836 9.623C28.4463 9.92633 27.8353 10.078 27.1506 10.078ZM27.1506 8.986C27.5926 8.986 27.9869 8.88633 28.3336 8.687C28.6889 8.48767 28.9663 8.206 29.1656 7.842C29.3649 7.46933 29.4646 7.04033 29.4646 6.555C29.4646 6.061 29.3649 5.63633 29.1656 5.281C28.9663 4.917 28.6889 4.63533 28.3336 4.436C27.9869 4.23667 27.5926 4.137 27.1506 4.137C26.7086 4.137 26.3143 4.23667 25.9676 4.436C25.6209 4.63533 25.3436 4.917 25.1356 5.281C24.9276 5.63633 24.8236 6.061 24.8236 6.555C24.8236 7.04033 24.9276 7.46933 25.1356 7.842C25.3436 8.206 25.6209 8.48767 25.9676 8.687C26.3143 8.88633 26.7086 8.986 27.1506 8.986ZM36.1046 10.078C35.5326 10.078 35.0082 9.948 34.5316 9.688C34.0636 9.41933 33.6866 9.025 33.4006 8.505C33.1232 7.985 32.9846 7.335 32.9846 6.555C32.9846 5.775 33.1189 5.125 33.3876 4.605C33.6649 4.085 34.0376 3.695 34.5056 3.435C34.9822 3.175 35.5152 3.045 36.1046 3.045C36.7806 3.045 37.3786 3.19233 37.8986 3.487C38.4186 3.78167 38.8302 4.19333 39.1336 4.722C39.4369 5.242 39.5886 5.853 39.5886 6.555C39.5886 7.257 39.4369 7.87233 39.1336 8.401C38.8302 8.92967 38.4186 9.34133 37.8986 9.636C37.3786 9.93067 36.7806 10.078 36.1046 10.078ZM32.4516 12.522V3.11H33.6476V4.969L33.5696 6.568L33.6996 8.167V12.522H32.4516ZM36.0006 8.986C36.4426 8.986 36.8369 8.88633 37.1836 8.687C37.5389 8.48767 37.8162 8.206 38.0156 7.842C38.2236 7.46933 38.3276 7.04033 38.3276 6.555C38.3276 6.061 38.2236 5.63633 38.0156 5.281C37.8162 4.917 37.5389 4.63533 37.1836 4.436C36.8369 4.23667 36.4426 4.137 36.0006 4.137C35.5672 4.137 35.1729 4.23667 34.8176 4.436C34.4709 4.63533 34.1936 4.917 33.9856 5.281C33.7862 5.63633 33.6866 6.061 33.6866 6.555C33.6866 7.04033 33.7862 7.46933 33.9856 7.842C34.1936 8.206 34.4709 8.48767 34.8176 8.687C35.1729 8.88633 35.5672 8.986 36.0006 8.986ZM41.4215 12.6C41.0921 12.6 40.7715 12.5437 40.4595 12.431C40.1475 12.327 39.8788 12.171 39.6535 11.963L40.1865 11.027C40.3598 11.1917 40.5505 11.3173 40.7585 11.404C40.9665 11.4907 41.1875 11.534 41.4215 11.534C41.7248 11.534 41.9761 11.456 42.1755 11.3C42.3748 11.144 42.5611 10.8667 42.7345 10.468L43.1635 9.519L43.2935 9.363L45.9975 3.11H47.2195L43.8785 10.689C43.6791 11.1743 43.4538 11.5557 43.2025 11.833C42.9598 12.1103 42.6911 12.3053 42.3965 12.418C42.1018 12.5393 41.7768 12.6 41.4215 12.6ZM43.0595 10.221L39.9135 3.11H41.2135L43.8915 9.246L43.0595 10.221ZM48.3842 10V3.11H49.5802V4.982L49.4632 4.514C49.6538 4.03733 49.9745 3.67333 50.4252 3.422C50.8758 3.17067 51.4305 3.045 52.0892 3.045V4.254C52.0372 4.24533 51.9852 4.241 51.9332 4.241C51.8898 4.241 51.8465 4.241 51.8032 4.241C51.1358 4.241 50.6072 4.44033 50.2172 4.839C49.8272 5.23767 49.6322 5.814 49.6322 6.568V10H48.3842ZM53.6273 10V3.11H54.8753V10H53.6273ZM54.2513 1.784C54.0087 1.784 53.805 1.706 53.6403 1.55C53.4843 1.394 53.4063 1.20333 53.4063 0.978C53.4063 0.744 53.4843 0.549 53.6403 0.393C53.805 0.237 54.0087 0.159 54.2513 0.159C54.494 0.159 54.6933 0.237 54.8493 0.393C55.014 0.540333 55.0963 0.726666 55.0963 0.951999C55.0963 1.186 55.0183 1.38533 54.8623 1.55C54.7063 1.706 54.5027 1.784 54.2513 1.784ZM60.2742 12.6C59.6415 12.6 59.0262 12.509 58.4282 12.327C57.8389 12.1537 57.3579 11.9023 56.9852 11.573L57.5832 10.611C57.9039 10.8883 58.2982 11.105 58.7662 11.261C59.2342 11.4257 59.7239 11.508 60.2352 11.508C61.0499 11.508 61.6479 11.3173 62.0292 10.936C62.4105 10.5547 62.6012 9.974 62.6012 9.194V7.738L62.7312 6.373L62.6662 4.995V3.11H63.8492V9.064C63.8492 10.2773 63.5459 11.17 62.9392 11.742C62.3325 12.314 61.4442 12.6 60.2742 12.6ZM60.1182 9.714C59.4509 9.714 58.8529 9.57533 58.3242 9.298C57.8042 9.012 57.3882 8.61767 57.0762 8.115C56.7729 7.61233 56.6212 7.03167 56.6212 6.373C56.6212 5.70567 56.7729 5.125 57.0762 4.631C57.3882 4.12833 57.8042 3.73833 58.3242 3.461C58.8529 3.18367 59.4509 3.045 60.1182 3.045C60.7075 3.045 61.2449 3.16633 61.7302 3.409C62.2155 3.643 62.6012 4.007 62.8872 4.501C63.1819 4.995 63.3292 5.619 63.3292 6.373C63.3292 7.11833 63.1819 7.738 62.8872 8.232C62.6012 8.726 62.2155 9.09867 61.7302 9.35C61.2449 9.59267 60.7075 9.714 60.1182 9.714ZM60.2612 8.622C60.7205 8.622 61.1279 8.52667 61.4832 8.336C61.8385 8.14533 62.1159 7.881 62.3152 7.543C62.5232 7.205 62.6272 6.815 62.6272 6.373C62.6272 5.931 62.5232 5.541 62.3152 5.203C62.1159 4.865 61.8385 4.605 61.4832 4.423C61.1279 4.23233 60.7205 4.137 60.2612 4.137C59.8019 4.137 59.3902 4.23233 59.0262 4.423C58.6709 4.605 58.3892 4.865 58.1812 5.203C57.9819 5.541 57.8822 5.931 57.8822 6.373C57.8822 6.815 57.9819 7.205 58.1812 7.543C58.3892 7.881 58.6709 8.14533 59.0262 8.336C59.3902 8.52667 59.8019 8.622 60.2612 8.622ZM69.9128 3.045C70.4761 3.045 70.9701 3.15333 71.3948 3.37C71.8281 3.58667 72.1661 3.916 72.4088 4.358C72.6514 4.8 72.7728 5.359 72.7728 6.035V10H71.5248V6.178C71.5248 5.51067 71.3601 5.008 71.0308 4.67C70.7101 4.332 70.2551 4.163 69.6658 4.163C69.2238 4.163 68.8381 4.24967 68.5088 4.423C68.1794 4.59633 67.9238 4.852 67.7418 5.19C67.5684 5.528 67.4818 5.94833 67.4818 6.451V10H66.2338V0.353999H67.4818V4.969L67.2348 4.475C67.4601 4.02433 67.8068 3.67333 68.2748 3.422C68.7428 3.17067 69.2888 3.045 69.9128 3.045ZM77.4484 10.078C76.7551 10.078 76.2177 9.89167 75.8364 9.519C75.4551 9.14633 75.2644 8.61333 75.2644 7.92V1.602H76.5124V7.868C76.5124 8.24067 76.6034 8.52667 76.7854 8.726C76.9761 8.92533 77.2447 9.025 77.5914 9.025C77.9814 9.025 78.3064 8.91667 78.5664 8.7L78.9564 9.597C78.7657 9.76167 78.5361 9.883 78.2674 9.961C78.0074 10.039 77.7344 10.078 77.4484 10.078ZM74.0944 4.137V3.11H78.4884V4.137H74.0944ZM80.8912 10.078C80.6485 10.078 80.4405 9.99567 80.2672 9.831C80.0938 9.65767 80.0072 9.441 80.0072 9.181C80.0072 8.921 80.0938 8.70867 80.2672 8.544C80.4405 8.37933 80.6485 8.297 80.8912 8.297C81.1252 8.297 81.3245 8.37933 81.4892 8.544C81.6625 8.70867 81.7492 8.921 81.7492 9.181C81.7492 9.441 81.6625 9.65767 81.4892 9.831C81.3245 9.99567 81.1252 10.078 80.8912 10.078Z" fill="#3C3F34"/>
</svg>
