<svg width="1440" height="766" viewBox="0 0 1440 766" fill="none" xmlns="http://www.w3.org/2000/svg">
<path fill-rule="evenodd" clip-rule="evenodd" d="M852.043 493.79C948.19 500.647 1026.56 581.734 1111.38 629.364V629.364C1214.45 687.247 1346.37 650.148 1406.04 546.502C1465.7 442.856 1430.51 311.911 1327.44 254.028C1277.81 226.155 1221.49 220.306 1169.77 233.306C1110.87 248.109 1054.24 275.788 993.392 278.872L684.233 294.545C537.433 301.986 396.148 162.126 251.049 134.381V134.381C135.457 112.278 26.5846 184.248 7.87566 295.131C-10.8332 406.014 67.7059 513.82 183.298 535.923C208.513 540.744 233.408 541.09 257.117 537.531C354.337 522.939 448.126 464.98 546.606 472.004L852.043 493.79Z" fill="#F7F8F3"/>
</svg>
