<svg width="283" height="110" viewBox="0 0 283 110" fill="none" xmlns="http://www.w3.org/2000/svg">
<g filter="url(#filter0_d_737_81)">
<rect x="30" y="20" width="223" height="50" rx="9" fill="url(#paint0_linear_737_81)" shape-rendering="crispEdges"/>
<path d="M107.292 51V41.512H103.66V39.48H113.1V41.512H109.468V51H107.292ZM113.589 51V42.36H115.509V44.472L115.301 44.2C115.413 43.9013 115.562 43.6293 115.749 43.384C115.935 43.1387 116.165 42.936 116.437 42.776C116.645 42.648 116.871 42.5493 117.117 42.48C117.362 42.4053 117.615 42.36 117.877 42.344C118.138 42.3227 118.399 42.328 118.661 42.36V44.392C118.421 44.3173 118.141 44.2933 117.821 44.32C117.506 44.3413 117.221 44.4133 116.965 44.536C116.709 44.6533 116.493 44.8107 116.317 45.008C116.141 45.2 116.007 45.4293 115.917 45.696C115.826 45.9573 115.781 46.2533 115.781 46.584V51H113.589ZM120.974 54.84L122.638 50.264L122.67 51.608L118.91 42.36H121.166L123.694 48.904H123.182L125.694 42.36H127.87L122.99 54.84H120.974ZM132.358 41.16V39.24H134.534V41.16H132.358ZM132.358 51V42.36H134.534V51H132.358ZM142.117 51C141.519 51.112 140.933 51.16 140.357 51.144C139.786 51.1333 139.274 51.0347 138.821 50.848C138.373 50.656 138.031 50.3493 137.797 49.928C137.583 49.5333 137.471 49.1333 137.461 48.728C137.45 48.3173 137.445 47.8533 137.445 47.336V39.96H139.621V47.208C139.621 47.544 139.623 47.848 139.629 48.12C139.639 48.3867 139.695 48.6 139.797 48.76C139.989 49.064 140.295 49.2293 140.717 49.256C141.138 49.2827 141.605 49.2613 142.117 49.192V51ZM135.973 44.04V42.36H142.117V44.04H135.973ZM153.133 51V46.92C153.133 46.7227 153.122 46.472 153.101 46.168C153.08 45.8587 153.013 45.5493 152.901 45.24C152.789 44.9307 152.605 44.672 152.349 44.464C152.098 44.256 151.741 44.152 151.277 44.152C151.09 44.152 150.89 44.1813 150.677 44.24C150.464 44.2987 150.264 44.4133 150.077 44.584C149.89 44.7493 149.736 44.9947 149.613 45.32C149.496 45.6453 149.437 46.0773 149.437 46.616L148.189 46.024C148.189 45.3413 148.328 44.7013 148.605 44.104C148.882 43.5067 149.298 43.024 149.853 42.656C150.413 42.288 151.117 42.104 151.965 42.104C152.642 42.104 153.194 42.2187 153.621 42.448C154.048 42.6773 154.378 42.968 154.613 43.32C154.853 43.672 155.024 44.04 155.125 44.424C155.226 44.8027 155.288 45.1493 155.309 45.464C155.33 45.7787 155.341 46.008 155.341 46.152V51H153.133ZM147.229 51V42.36H149.165V45.224H149.437V51H147.229ZM161.149 51.24C160.279 51.24 159.517 51.0453 158.861 50.656C158.205 50.2667 157.693 49.7307 157.325 49.048C156.962 48.36 156.781 47.5707 156.781 46.68C156.781 45.7787 156.967 44.9867 157.341 44.304C157.714 43.616 158.229 43.08 158.885 42.696C159.541 42.312 160.295 42.12 161.149 42.12C162.018 42.12 162.781 42.3147 163.437 42.704C164.098 43.0933 164.613 43.632 164.981 44.32C165.349 45.0027 165.533 45.7893 165.533 46.68C165.533 47.576 165.346 48.368 164.973 49.056C164.605 49.7387 164.09 50.2747 163.429 50.664C162.773 51.048 162.013 51.24 161.149 51.24ZM161.149 49.208C161.847 49.208 162.367 48.9733 162.709 48.504C163.055 48.0293 163.229 47.4213 163.229 46.68C163.229 45.912 163.053 45.2987 162.701 44.84C162.354 44.3813 161.837 44.152 161.149 44.152C160.674 44.152 160.285 44.2587 159.981 44.472C159.677 44.6853 159.45 44.9813 159.301 45.36C159.157 45.7387 159.085 46.1787 159.085 46.68C159.085 47.4533 159.258 48.0693 159.605 48.528C159.957 48.9813 160.471 49.208 161.149 49.208ZM168.819 51L166.179 42.344L168.307 42.36L169.875 47.512L171.467 42.36H173.275L174.867 47.512L176.435 42.36H178.563L175.923 51H174.259L172.371 45.368L170.483 51H168.819Z" fill="white"/>
</g>
<defs>
<filter id="filter0_d_737_81" x="0" y="0" width="283" height="110" filterUnits="userSpaceOnUse" color-interpolation-filters="sRGB">
<feFlood flood-opacity="0" result="BackgroundImageFix"/>
<feColorMatrix in="SourceAlpha" type="matrix" values="0 0 0 0 0 0 0 0 0 0 0 0 0 0 0 0 0 0 127 0" result="hardAlpha"/>
<feOffset dy="10"/>
<feGaussianBlur stdDeviation="15"/>
<feComposite in2="hardAlpha" operator="out"/>
<feColorMatrix type="matrix" values="0 0 0 0 0.529412 0 0 0 0 0.713726 0 0 0 0 0.439216 0 0 0 0.3 0"/>
<feBlend mode="normal" in2="BackgroundImageFix" result="effect1_dropShadow_737_81"/>
<feBlend mode="normal" in="SourceGraphic" in2="effect1_dropShadow_737_81" result="shape"/>
</filter>
<linearGradient id="paint0_linear_737_81" x1="30" y1="22.9167" x2="200.261" y2="140.451" gradientUnits="userSpaceOnUse">
<stop stop-color="#97BC5D"/>
<stop offset="1" stop-color="#C0D997"/>
</linearGradient>
</defs>
</svg>
