<svg width="180" height="50" viewBox="0 0 180 50" fill="none" xmlns="http://www.w3.org/2000/svg">
<rect x="1" y="1" width="178" height="48" rx="8" fill="white"/>
<path d="M36.12 31V19.48H39.672C39.7893 19.48 39.9947 19.4827 40.288 19.488C40.5813 19.4933 40.8613 19.5147 41.128 19.552C42.0187 19.6693 42.7627 19.9947 43.36 20.528C43.9627 21.056 44.416 21.728 44.72 22.544C45.024 23.36 45.176 24.2587 45.176 25.24C45.176 26.2213 45.024 27.12 44.72 27.936C44.416 28.752 43.9627 29.4267 43.36 29.96C42.7627 30.488 42.0187 30.8107 41.128 30.928C40.8613 30.96 40.5787 30.9813 40.28 30.992C39.9867 30.9973 39.784 31 39.672 31H36.12ZM37.584 29.64H39.672C39.8747 29.64 40.1013 29.6347 40.352 29.624C40.6027 29.608 40.8213 29.584 41.008 29.552C41.6373 29.4347 42.1467 29.1707 42.536 28.76C42.9253 28.3493 43.2107 27.8373 43.392 27.224C43.5733 26.6107 43.664 25.9493 43.664 25.24C43.664 24.5147 43.5707 23.8453 43.384 23.232C43.2027 22.6187 42.9173 22.1093 42.528 21.704C42.1387 21.2987 41.632 21.04 41.008 20.928C40.8213 20.8907 40.6 20.8667 40.344 20.856C40.088 20.8453 39.864 20.84 39.672 20.84H37.584V29.64ZM50.6906 31.24C49.832 31.24 49.0906 31.0453 48.4666 30.656C47.848 30.2667 47.3706 29.728 47.0346 29.04C46.6986 28.352 46.5306 27.5627 46.5306 26.672C46.5306 25.7653 46.7013 24.9707 47.0426 24.288C47.384 23.6053 47.8666 23.0747 48.4906 22.696C49.1146 22.312 49.848 22.12 50.6906 22.12C51.5546 22.12 52.2986 22.3147 52.9226 22.704C53.5466 23.088 54.024 23.624 54.3546 24.312C54.6906 24.9947 54.8586 25.7813 54.8586 26.672C54.8586 27.5733 54.6906 28.368 54.3546 29.056C54.0186 29.7387 53.5386 30.2747 52.9146 30.664C52.2906 31.048 51.5493 31.24 50.6906 31.24ZM50.6906 29.888C51.5866 29.888 52.2533 29.5893 52.6906 28.992C53.128 28.3947 53.3466 27.6213 53.3466 26.672C53.3466 25.696 53.1253 24.92 52.6826 24.344C52.24 23.7627 51.576 23.472 50.6906 23.472C50.088 23.472 49.592 23.608 49.2026 23.88C48.8133 24.152 48.5226 24.528 48.3306 25.008C48.1386 25.488 48.0426 26.0427 48.0426 26.672C48.0426 27.6427 48.2666 28.4213 48.7146 29.008C49.1626 29.5947 49.8213 29.888 50.6906 29.888ZM58.1475 31L55.5075 22.352L56.9235 22.36L58.8515 28.68L60.7955 22.36H62.0515L63.9875 28.68L65.9235 22.36H67.3315L64.6915 31H63.5075L61.4195 24.432L59.3315 31H58.1475ZM74.9283 31V26.672C74.9283 26.2613 74.8909 25.8667 74.8163 25.488C74.7469 25.1093 74.6216 24.7707 74.4403 24.472C74.2643 24.168 74.0243 23.928 73.7203 23.752C73.4216 23.576 73.0429 23.488 72.5843 23.488C72.2269 23.488 71.9016 23.5493 71.6083 23.672C71.3203 23.7893 71.0723 23.9707 70.8643 24.216C70.6563 24.4613 70.4936 24.7707 70.3763 25.144C70.2643 25.512 70.2083 25.9467 70.2083 26.448L69.2723 26.16C69.2723 25.3227 69.4216 24.6053 69.7203 24.008C70.0243 23.4053 70.4483 22.944 70.9923 22.624C71.5416 22.2987 72.1869 22.136 72.9283 22.136C73.4883 22.136 73.9656 22.224 74.3603 22.4C74.7549 22.576 75.0829 22.8107 75.3443 23.104C75.6056 23.392 75.8109 23.7173 75.9603 24.08C76.1096 24.4373 76.2136 24.8027 76.2723 25.176C76.3363 25.544 76.3683 25.8933 76.3683 26.224V31H74.9283ZM68.7683 31V22.36H70.0483V24.672H70.2083V31H68.7683ZM78.6081 31V19.24H80.0321V31H78.6081ZM86.1125 31.24C85.2538 31.24 84.5125 31.0453 83.8885 30.656C83.2698 30.2667 82.7925 29.728 82.4565 29.04C82.1205 28.352 81.9525 27.5627 81.9525 26.672C81.9525 25.7653 82.1232 24.9707 82.4645 24.288C82.8058 23.6053 83.2885 23.0747 83.9125 22.696C84.5365 22.312 85.2698 22.12 86.1125 22.12C86.9765 22.12 87.7205 22.3147 88.3445 22.704C88.9685 23.088 89.4458 23.624 89.7765 24.312C90.1125 24.9947 90.2805 25.7813 90.2805 26.672C90.2805 27.5733 90.1125 28.368 89.7765 29.056C89.4405 29.7387 88.9605 30.2747 88.3365 30.664C87.7125 31.048 86.9712 31.24 86.1125 31.24ZM86.1125 29.888C87.0085 29.888 87.6752 29.5893 88.1125 28.992C88.5498 28.3947 88.7685 27.6213 88.7685 26.672C88.7685 25.696 88.5472 24.92 88.1045 24.344C87.6618 23.7627 86.9978 23.472 86.1125 23.472C85.5098 23.472 85.0138 23.608 84.6245 23.88C84.2352 24.152 83.9445 24.528 83.7525 25.008C83.5605 25.488 83.4645 26.0427 83.4645 26.672C83.4645 27.6427 83.6885 28.4213 84.1365 29.008C84.5845 29.5947 85.2432 29.888 86.1125 29.888ZM94.4979 31.24C93.8525 31.24 93.3112 31.1227 92.8739 30.888C92.4419 30.648 92.1139 30.3333 91.8899 29.944C91.6712 29.5547 91.5619 29.128 91.5619 28.664C91.5619 28.2107 91.6472 27.8187 91.8179 27.488C91.9939 27.152 92.2392 26.8747 92.5539 26.656C92.8685 26.432 93.2445 26.256 93.6819 26.128C94.0925 26.016 94.5512 25.92 95.0579 25.84C95.5699 25.7547 96.0872 25.6773 96.6099 25.608C97.1325 25.5387 97.6205 25.472 98.0739 25.408L97.5619 25.704C97.5779 24.936 97.4232 24.368 97.0979 24C96.7779 23.632 96.2232 23.448 95.4339 23.448C94.9112 23.448 94.4525 23.568 94.0579 23.808C93.6685 24.0427 93.3939 24.4267 93.2339 24.96L91.8819 24.552C92.0899 23.7947 92.4925 23.2 93.0899 22.768C93.6872 22.336 94.4739 22.12 95.4499 22.12C96.2339 22.12 96.9059 22.2613 97.4659 22.544C98.0312 22.8213 98.4365 23.2427 98.6819 23.808C98.8045 24.0747 98.8819 24.3653 98.9139 24.68C98.9459 24.9893 98.9619 25.3147 98.9619 25.656V31H97.6979V28.928L97.9939 29.12C97.6685 29.8187 97.2125 30.3467 96.6259 30.704C96.0445 31.0613 95.3352 31.24 94.4979 31.24ZM94.7139 30.048C95.2259 30.048 95.6685 29.9573 96.0419 29.776C96.4205 29.5893 96.7245 29.3467 96.9539 29.048C97.1832 28.744 97.3325 28.4133 97.4019 28.056C97.4819 27.7893 97.5245 27.4933 97.5299 27.168C97.5405 26.8373 97.5459 26.584 97.5459 26.408L98.0419 26.624C97.5779 26.688 97.1219 26.7493 96.6739 26.808C96.2259 26.8667 95.8019 26.9307 95.4019 27C95.0019 27.064 94.6419 27.1413 94.3219 27.232C94.0872 27.3067 93.8659 27.4027 93.6579 27.52C93.4552 27.6373 93.2899 27.7893 93.1619 27.976C93.0392 28.1573 92.9779 28.384 92.9779 28.656C92.9779 28.8907 93.0365 29.1147 93.1539 29.328C93.2765 29.5413 93.4632 29.7147 93.7139 29.848C93.9699 29.9813 94.3032 30.048 94.7139 30.048ZM104.434 31.24C103.629 31.24 102.938 31.04 102.362 30.64C101.786 30.2347 101.341 29.688 101.026 29C100.717 28.312 100.562 27.536 100.562 26.672C100.562 25.808 100.717 25.032 101.026 24.344C101.341 23.656 101.786 23.1147 102.362 22.72C102.938 22.32 103.626 22.12 104.426 22.12C105.242 22.12 105.927 22.3173 106.482 22.712C107.037 23.1067 107.455 23.648 107.738 24.336C108.026 25.024 108.17 25.8027 108.17 26.672C108.17 27.5307 108.026 28.3067 107.738 29C107.455 29.688 107.037 30.2347 106.482 30.64C105.927 31.04 105.245 31.24 104.434 31.24ZM104.61 29.936C105.191 29.936 105.669 29.7973 106.042 29.52C106.415 29.2373 106.69 28.8507 106.866 28.36C107.047 27.864 107.138 27.3013 107.138 26.672C107.138 26.032 107.047 25.4693 106.866 24.984C106.69 24.4933 106.418 24.112 106.05 23.84C105.682 23.5627 105.215 23.424 104.65 23.424C104.063 23.424 103.578 23.568 103.194 23.856C102.815 24.144 102.533 24.5333 102.346 25.024C102.165 25.5147 102.074 26.064 102.074 26.672C102.074 27.2853 102.167 27.84 102.354 28.336C102.541 28.8267 102.821 29.216 103.194 29.504C103.573 29.792 104.045 29.936 104.61 29.936ZM107.138 31V24.64H106.978V19.48H108.41V31H107.138ZM120.006 31V26.672C120.006 26.2613 119.969 25.8667 119.894 25.488C119.825 25.1093 119.7 24.7707 119.518 24.472C119.342 24.168 119.102 23.928 118.798 23.752C118.5 23.576 118.121 23.488 117.662 23.488C117.305 23.488 116.98 23.5493 116.686 23.672C116.398 23.7893 116.15 23.9707 115.942 24.216C115.734 24.4613 115.572 24.7707 115.454 25.144C115.342 25.512 115.286 25.9467 115.286 26.448L114.35 26.16C114.35 25.3227 114.5 24.6053 114.798 24.008C115.102 23.4053 115.526 22.944 116.07 22.624C116.62 22.2987 117.265 22.136 118.006 22.136C118.566 22.136 119.044 22.224 119.438 22.4C119.833 22.576 120.161 22.8107 120.422 23.104C120.684 23.392 120.889 23.7173 121.038 24.08C121.188 24.4373 121.292 24.8027 121.35 25.176C121.414 25.544 121.446 25.8933 121.446 26.224V31H120.006ZM113.846 31V22.36H115.126V24.672H115.286V31H113.846ZM127.128 31.24C126.269 31.24 125.528 31.0453 124.904 30.656C124.285 30.2667 123.808 29.728 123.472 29.04C123.136 28.352 122.968 27.5627 122.968 26.672C122.968 25.7653 123.139 24.9707 123.48 24.288C123.821 23.6053 124.304 23.0747 124.928 22.696C125.552 22.312 126.285 22.12 127.128 22.12C127.992 22.12 128.736 22.3147 129.36 22.704C129.984 23.088 130.461 23.624 130.792 24.312C131.128 24.9947 131.296 25.7813 131.296 26.672C131.296 27.5733 131.128 28.368 130.792 29.056C130.456 29.7387 129.976 30.2747 129.352 30.664C128.728 31.048 127.987 31.24 127.128 31.24ZM127.128 29.888C128.024 29.888 128.691 29.5893 129.128 28.992C129.565 28.3947 129.784 27.6213 129.784 26.672C129.784 25.696 129.563 24.92 129.12 24.344C128.677 23.7627 128.013 23.472 127.128 23.472C126.525 23.472 126.029 23.608 125.64 23.88C125.251 24.152 124.96 24.528 124.768 25.008C124.576 25.488 124.48 26.0427 124.48 26.672C124.48 27.6427 124.704 28.4213 125.152 29.008C125.6 29.5947 126.259 29.888 127.128 29.888ZM134.585 31L131.945 22.352L133.361 22.36L135.289 28.68L137.233 22.36H138.489L140.425 28.68L142.361 22.36H143.769L141.129 31H139.945L137.857 24.432L135.769 31H134.585Z" fill="#3C3F34"/>
<rect x="1" y="1" width="178" height="48" rx="8" stroke="#87B670" stroke-width="2"/>
</svg>
